<?xml version="1.0" standalone="no"?>
<!DOCTYPE svg PUBLIC "-//W3C//DTD SVG 20010904//EN"
 "http://www.w3.org/TR/2001/REC-SVG-20010904/DTD/svg10.dtd">
<svg version="1.0" xmlns="http://www.w3.org/2000/svg"
 width="1280.000000pt" height="960.000000pt" viewBox="0 0 1280.000000 960.000000"
 preserveAspectRatio="xMidYMid meet">
<g transform="translate(0.000000,960.000000) scale(0.100000,-0.100000)"
fill="#000000" stroke="none">
<path d="M7813 8540 c-63 -28 -127 -97 -154 -166 -30 -79 -33 -249 -5 -374 67
-303 91 -374 171 -495 105 -158 396 -429 541 -503 23 -12 53 -39 69 -64 16
-24 54 -70 84 -103 72 -77 144 -163 206 -245 26 -36 71 -88 98 -117 l50 -52
-52 -111 c-28 -61 -72 -137 -96 -169 -44 -58 -47 -60 -103 -66 -31 -4 -105
-18 -164 -31 -59 -13 -131 -24 -160 -24 -49 0 -434 67 -518 90 -19 6 -51 10
-70 10 -19 0 -70 11 -112 25 -43 14 -131 32 -195 40 -65 9 -175 26 -244 40
-70 13 -173 29 -230 35 -114 12 -202 24 -294 42 -100 19 -383 14 -512 -10
-134 -24 -205 -55 -274 -118 -65 -62 -96 -116 -114 -199 -24 -117 4 -211 80
-270 84 -63 316 -134 527 -160 70 -8 156 -22 191 -30 35 -8 118 -22 183 -30
248 -32 376 -68 582 -164 165 -76 233 -97 367 -113 99 -12 110 -16 113 -35 4
-24 -47 -135 -82 -178 -23 -29 -25 -29 -67 -17 -24 7 -132 35 -239 62 -107 28
-205 55 -217 60 -32 13 -329 100 -378 109 -22 5 -78 20 -125 34 -47 14 -151
37 -230 52 -162 29 -520 114 -620 146 -36 11 -155 50 -265 85 -482 157 -845
196 -1015 109 -191 -98 -258 -372 -130 -534 62 -78 142 -118 420 -210 481
-158 622 -199 718 -211 51 -6 114 -19 140 -29 26 -10 81 -26 122 -36 103 -24
227 -64 273 -87 20 -10 70 -30 110 -44 39 -15 133 -55 207 -91 137 -66 329
-133 379 -133 28 0 264 -48 376 -76 138 -35 135 -34 135 -57 0 -29 -37 -147
-52 -164 -17 -21 -43 -16 -208 37 -149 49 -412 110 -468 110 -39 0 -300 62
-592 141 -258 70 -795 257 -930 324 -41 21 -133 61 -205 90 -71 30 -202 84
-290 123 -183 79 -251 96 -361 90 -99 -5 -159 -33 -232 -105 -117 -116 -145
-291 -71 -447 54 -115 157 -193 396 -302 95 -42 172 -78 170 -80 -1 -1 -54 7
-117 18 -191 32 -276 13 -374 -84 -64 -64 -96 -140 -96 -227 0 -72 36 -149
112 -237 106 -124 204 -188 473 -309 94 -43 175 -81 180 -85 15 -12 264 -103
420 -154 174 -56 430 -160 510 -207 33 -19 76 -41 95 -49 19 -7 87 -35 150
-63 137 -58 194 -80 360 -137 69 -23 180 -64 246 -90 67 -27 141 -54 165 -60
65 -17 180 -69 212 -96 39 -32 108 -62 197 -84 116 -28 165 -52 275 -135 22
-16 73 -45 114 -64 57 -26 93 -53 164 -122 75 -74 96 -89 122 -89 18 0 47 -5
66 -11 41 -14 160 -90 212 -136 20 -18 45 -33 55 -33 10 0 43 -17 73 -39 30
-21 84 -52 120 -69 37 -18 89 -50 115 -72 67 -55 246 -120 494 -179 184 -43
288 -55 395 -45 168 17 326 9 500 -24 174 -33 199 -42 384 -135 96 -48 135
-74 175 -116 28 -29 75 -64 104 -78 42 -21 76 -52 170 -160 64 -74 132 -157
150 -186 18 -29 37 -53 42 -55 11 -4 182 -215 229 -283 l34 -49 913 0 914 0 0
1909 0 1909 -40 32 c-22 18 -116 65 -208 105 -92 40 -191 87 -218 104 -28 17
-58 31 -66 31 -8 0 -48 11 -89 25 -41 14 -116 37 -168 50 -99 26 -121 37 -186
93 -22 19 -60 42 -85 51 -69 27 -292 184 -350 247 -65 72 -101 144 -135 270
-33 120 -58 171 -135 274 -47 65 -61 93 -75 151 -8 39 -24 88 -34 108 -10 20
-44 101 -76 181 -32 80 -65 156 -74 170 -40 59 -135 234 -165 307 -19 43 -48
107 -66 143 -18 36 -43 86 -56 112 -13 27 -24 53 -24 58 0 6 -13 39 -29 75
-28 61 -70 217 -106 390 -37 180 -81 268 -169 340 -50 41 -214 123 -301 151
-33 10 -125 52 -205 93 -80 40 -167 81 -195 91 -83 30 -140 58 -180 90 -21 16
-41 30 -46 30 -4 0 -70 61 -146 136 -76 74 -163 153 -193 175 -30 21 -71 52
-90 68 -24 20 -78 42 -167 70 -242 76 -401 165 -501 282 -140 162 -177 199
-200 199 -13 0 -35 9 -49 20 -33 26 -103 25 -160 0z"/>
</g>
</svg>
