<?xml version="1.0" standalone="no"?>
<!DOCTYPE svg PUBLIC "-//W3C//DTD SVG 20010904//EN"
 "http://www.w3.org/TR/2001/REC-SVG-20010904/DTD/svg10.dtd">
<svg version="1.0" xmlns="http://www.w3.org/2000/svg"
 width="1280.000000pt" height="1280.000000pt" viewBox="0 0 1280.000000 1280.000000"
 preserveAspectRatio="xMidYMid meet">
<g transform="translate(0.000000,1280.000000) scale(0.100000,-0.100000)"
fill="#000000" stroke="none">
<path d="M6916 12768 c2 -18 11 -103 20 -188 8 -85 17 -157 19 -160 2 -3 6
-136 10 -295 3 -160 11 -344 18 -410 16 -162 14 -940 -2 -1039 -58 -333 -56
-327 -153 -399 -76 -57 -184 -162 -237 -232 -16 -22 -66 -83 -110 -135 -44
-52 -108 -133 -142 -180 -34 -47 -105 -128 -158 -181 -79 -78 -111 -120 -180
-235 -134 -222 -188 -298 -301 -419 -92 -99 -166 -196 -200 -264 -18 -36 -56
-90 -84 -120 -29 -31 -63 -72 -76 -91 -12 -19 -51 -62 -85 -96 -106 -102 -133
-190 -79 -254 39 -46 74 -60 151 -60 114 0 163 26 368 189 158 126 332 291
388 368 60 81 253 269 291 284 17 6 46 18 64 26 76 33 90 30 197 -43 55 -37
118 -83 140 -103 22 -20 56 -47 76 -59 25 -15 45 -40 64 -80 67 -139 125 -273
125 -287 0 -8 4 -23 9 -33 14 -26 61 -198 61 -222 0 -11 11 -67 25 -123 14
-56 30 -131 36 -167 5 -36 13 -87 18 -115 5 -27 14 -84 20 -125 12 -73 18
-110 40 -236 6 -33 11 -89 11 -125 0 -60 16 -167 39 -269 6 -25 29 -135 51
-245 23 -110 45 -216 50 -235 18 -75 41 -156 50 -175 5 -11 21 -56 36 -100 33
-103 64 -149 121 -186 111 -70 245 -8 246 114 0 23 -5 74 -11 112 -6 39 -18
113 -27 165 -8 52 -19 115 -24 140 -5 25 -12 64 -15 85 -3 22 -11 76 -18 120
-7 44 -11 127 -10 185 9 285 8 303 -24 485 -6 30 -18 208 -30 445 -6 120 -6
126 15 145 21 19 23 19 56 1 56 -30 65 -68 75 -326 9 -198 16 -286 39 -435 6
-38 11 -96 11 -127 0 -31 4 -78 10 -105 22 -108 44 -359 46 -528 1 -99 7 -207
13 -239 6 -33 11 -82 11 -110 0 -77 37 -172 82 -212 39 -36 85 -54 138 -54 62
0 100 18 137 67 l28 37 -3 240 -3 241 49 27 c50 27 97 81 128 148 9 19 36 78
61 130 58 120 71 165 84 270 11 102 47 250 63 268 10 10 17 9 37 -6 63 -48
127 -51 167 -9 12 13 30 57 41 102 10 44 31 121 46 170 21 67 30 123 35 220 4
72 15 157 24 190 37 129 38 143 26 258 -6 62 -16 166 -20 232 -5 66 -14 181
-19 255 -11 153 -36 282 -75 385 -14 39 -42 131 -60 205 -70 274 -85 327 -124
437 -61 170 -159 351 -252 463 -50 60 -106 165 -119 220 -5 25 -17 101 -26
170 -9 69 -22 168 -30 220 -8 52 -16 113 -19 135 -2 22 -9 58 -15 80 -17 64
-12 389 9 650 11 132 31 422 45 645 13 223 27 435 31 473 l6 67 -765 0 -766 0
5 -32z m1817 -4728 c3 -11 3 -38 0 -61 -8 -53 -23 -31 -23 34 0 48 13 64 23
27z"/>
<path d="M6012 7210 c-24 -11 -51 -34 -67 -58 l-26 -40 2 -236 3 -236 -51 -33
c-57 -35 -116 -114 -142 -186 -9 -25 -33 -75 -53 -111 -40 -72 -59 -140 -78
-275 -17 -123 -44 -227 -62 -239 -10 -6 -24 -2 -45 13 -37 28 -99 36 -133 19
-29 -16 -56 -66 -65 -123 -4 -22 -23 -94 -42 -160 -29 -96 -37 -141 -39 -225
-4 -104 -12 -156 -41 -259 -15 -52 -15 -114 2 -301 2 -25 6 -90 10 -145 7
-101 32 -368 39 -415 8 -52 26 -119 55 -201 16 -46 35 -104 41 -129 6 -25 15
-61 20 -80 5 -19 13 -53 18 -75 25 -104 76 -283 103 -358 58 -160 180 -383
259 -474 35 -39 98 -150 111 -195 5 -18 12 -53 14 -78 3 -25 10 -79 16 -120 6
-41 12 -88 13 -105 7 -77 36 -265 44 -286 30 -82 13 -617 -33 -1044 -3 -27
-12 -180 -20 -340 -8 -159 -19 -362 -25 -450 -5 -88 -10 -184 -10 -212 l0 -53
781 0 781 0 -6 23 c-4 12 -9 49 -12 82 -5 54 -38 378 -49 472 -3 21 -9 175
-15 343 -5 168 -15 361 -22 430 -7 76 -11 282 -9 525 1 353 4 413 22 515 11
63 22 131 25 150 15 113 40 160 113 209 69 47 175 150 248 241 29 36 83 103
120 148 82 101 122 152 165 212 17 25 73 86 123 135 87 86 137 157 261 368 42
72 127 182 242 312 121 137 141 164 182 245 18 36 52 84 76 107 24 24 57 64
75 90 18 27 60 75 94 108 105 101 126 173 73 247 -30 43 -80 61 -163 59 -96
-2 -174 -43 -347 -181 -180 -144 -317 -274 -400 -380 -36 -47 -109 -127 -161
-176 -82 -78 -106 -95 -176 -122 -44 -18 -87 -32 -96 -32 -17 0 -187 114 -275
185 -30 25 -65 53 -78 62 -22 17 -162 308 -175 363 -3 14 -10 41 -16 60 -12
44 -47 190 -60 250 -5 25 -19 86 -29 135 -11 50 -26 124 -32 165 -6 41 -14 86
-16 100 -3 14 -9 57 -14 95 -5 39 -14 90 -19 115 -14 70 -20 116 -31 235 -12
134 -30 240 -65 395 -9 41 -18 84 -20 95 -1 11 -9 47 -18 80 -8 33 -18 80 -22
105 -13 83 -40 183 -61 224 -7 16 -14 37 -14 47 0 10 -4 21 -10 24 -5 3 -10
15 -10 25 0 32 -40 114 -73 148 -85 89 -193 96 -267 17 -39 -41 -35 -109 23
-435 l50 -285 2 -255 c1 -236 6 -301 34 -465 12 -73 26 -485 17 -513 -10 -30
-35 -35 -71 -12 -55 34 -64 74 -76 355 -5 110 -14 236 -19 280 -6 44 -14 134
-19 200 -5 66 -12 134 -15 150 -5 29 -15 99 -37 285 -6 47 -10 161 -10 254 0
107 -5 196 -14 245 -8 42 -15 94 -15 117 0 52 -26 130 -57 172 -51 68 -155 96
-231 62z m-447 -2175 c8 -58 4 -72 -14 -60 -13 8 -15 115 -2 115 5 0 13 -25
16 -55z"/>
</g>
</svg>
